<?xml version="1.0" encoding="UTF-8" standalone="no"?><!DOCTYPE svg PUBLIC "-//W3C//DTD SVG 1.1//EN" "http://www.w3.org/Graphics/SVG/1.1/DTD/svg11.dtd"><svg width="100%" height="100%" viewBox="0 0 104 44" version="1.1" xmlns="http://www.w3.org/2000/svg" xmlns:xlink="http://www.w3.org/1999/xlink" xml:space="preserve" xmlns:serif="http://www.serif.com/" style="fill-rule:evenodd;clip-rule:evenodd;stroke-linejoin:round;stroke-miterlimit:2;"><path id="_1" serif:id="1" d="M92.764,37.459l-0,6.238l-5.308,0l0,-17.124l5.308,-0l-0,6.287l4.939,-0l0,-6.287l5.308,-0l-0,17.124l-5.308,0l0,-6.238l-4.939,0Zm-67.527,6.385c-1.491,-0 -2.814,-0.29 -3.969,-0.868c-1.155,-0.579 -2.06,-1.374 -2.715,-2.386c-0.656,-1.011 -0.983,-2.169 -0.983,-3.473l-0,-10.544l5.357,-0l-0,10.323c-0,0.473 0.098,0.893 0.295,1.26c0.196,0.367 0.471,0.657 0.823,0.869c0.352,0.212 0.749,0.318 1.192,0.318c0.475,-0 0.893,-0.106 1.253,-0.318c0.36,-0.212 0.647,-0.502 0.86,-0.869c0.213,-0.367 0.319,-0.787 0.319,-1.26l0,-10.323l5.235,-0l-0,10.544c-0,1.304 -0.328,2.462 -0.983,3.473c-0.656,1.012 -1.561,1.807 -2.716,2.386c-1.155,0.578 -2.478,0.868 -3.968,0.868Zm15.677,-0.147l0,-12.623l-5.307,0l-0,-4.501l16.07,-0l0,4.501l-5.455,0l0,12.623l-5.308,0Zm19.487,0.245c-1.294,-0 -2.437,-0.143 -3.428,-0.428c-0.991,-0.286 -1.859,-0.689 -2.605,-1.211c-0.745,-0.522 -1.413,-1.134 -2.002,-1.835l3.071,-3.425c0.819,1.044 1.675,1.733 2.568,2.067c0.893,0.335 1.732,0.502 2.519,0.502c0.311,-0 0.59,-0.029 0.835,-0.086c0.246,-0.057 0.434,-0.151 0.566,-0.281c0.131,-0.131 0.196,-0.31 0.196,-0.538c0,-0.212 -0.07,-0.392 -0.209,-0.539c-0.139,-0.146 -0.323,-0.273 -0.553,-0.379c-0.229,-0.106 -0.479,-0.195 -0.749,-0.269c-0.27,-0.073 -0.533,-0.134 -0.787,-0.183c-0.253,-0.049 -0.479,-0.098 -0.675,-0.147c-0.983,-0.228 -1.843,-0.506 -2.58,-0.832c-0.738,-0.326 -1.352,-0.717 -1.843,-1.174c-0.492,-0.457 -0.856,-0.979 -1.094,-1.566c-0.237,-0.587 -0.356,-1.247 -0.356,-1.981c-0,-0.832 0.192,-1.59 0.577,-2.275c0.385,-0.685 0.901,-1.272 1.548,-1.762c0.647,-0.489 1.385,-0.864 2.212,-1.125c0.827,-0.261 1.683,-0.391 2.568,-0.391c1.294,-0 2.375,0.118 3.243,0.354c0.869,0.237 1.598,0.575 2.187,1.015c0.59,0.441 1.098,0.955 1.524,1.542l-3.096,2.96c-0.361,-0.343 -0.737,-0.624 -1.131,-0.844c-0.393,-0.22 -0.798,-0.383 -1.216,-0.489c-0.418,-0.107 -0.831,-0.16 -1.241,-0.16c-0.377,0 -0.696,0.029 -0.958,0.086c-0.262,0.057 -0.467,0.147 -0.615,0.269c-0.147,0.123 -0.221,0.29 -0.221,0.502c0,0.212 0.094,0.387 0.283,0.526c0.188,0.138 0.426,0.257 0.712,0.354c0.287,0.098 0.574,0.176 0.861,0.233c0.286,0.057 0.528,0.102 0.724,0.134c0.901,0.163 1.729,0.388 2.482,0.673c0.754,0.285 1.413,0.644 1.978,1.076c0.566,0.433 1,0.971 1.303,1.615c0.303,0.644 0.454,1.407 0.454,2.287c0,1.256 -0.315,2.308 -0.946,3.156c-0.63,0.848 -1.478,1.488 -2.543,1.921c-1.065,0.432 -2.252,0.648 -3.563,0.648Zm18.184,-0c-1.376,-0 -2.641,-0.22 -3.796,-0.661c-1.155,-0.44 -2.155,-1.056 -2.998,-1.847c-0.844,-0.791 -1.495,-1.732 -1.954,-2.825c-0.459,-1.093 -0.688,-2.292 -0.688,-3.596c0,-1.305 0.233,-2.504 0.7,-3.596c0.467,-1.093 1.127,-2.035 1.979,-2.826c0.851,-0.791 1.863,-1.407 3.034,-1.847c1.172,-0.44 2.462,-0.66 3.871,-0.66c0.802,-0 1.593,0.093 2.371,0.281c0.778,0.187 1.515,0.473 2.211,0.856c0.697,0.383 1.332,0.869 1.905,1.456l-3.17,3.694c-0.229,-0.278 -0.504,-0.53 -0.823,-0.759c-0.32,-0.228 -0.688,-0.412 -1.106,-0.55c-0.418,-0.139 -0.897,-0.208 -1.438,-0.208c-0.557,-0 -1.085,0.094 -1.585,0.281c-0.499,0.188 -0.933,0.461 -1.302,0.82c-0.369,0.359 -0.659,0.799 -0.872,1.321c-0.213,0.522 -0.32,1.125 -0.32,1.81c0,0.62 0.107,1.182 0.32,1.688c0.213,0.506 0.516,0.938 0.909,1.297c0.393,0.358 0.868,0.636 1.425,0.831c0.557,0.196 1.18,0.294 1.868,0.294c0.491,-0 0.958,-0.073 1.4,-0.22c0.443,-0.147 0.844,-0.339 1.205,-0.575c0.36,-0.237 0.671,-0.502 0.933,-0.795l2.531,3.963c-0.426,0.457 -0.991,0.864 -1.695,1.223c-0.705,0.359 -1.483,0.64 -2.335,0.844c-0.852,0.204 -1.712,0.306 -2.58,0.306Zm-50.581,-25.843l-1.161,3.158l-6.406,0l8.572,-21.257l5.186,-0l8.51,21.257l-6.528,0l-1.161,-3.158l-7.012,-0Zm22.726,-5.194c0.148,-0.525 0.315,-1.046 0.501,-1.563c0.193,-0.536 0.442,-1.22 0.747,-2.05l3.417,-9.292l6.375,-0l-8.572,21.257l-5.185,0l-8.511,-21.257l6.589,-0l3.416,9.292c0.245,0.628 0.443,1.165 0.595,1.61c0.153,0.445 0.29,0.865 0.412,1.26c0.074,0.239 0.146,0.486 0.216,0.743Zm-50.73,8.352l0,-21.257l9.395,-0c1.607,-0 3.081,0.263 4.423,0.79c1.342,0.526 2.512,1.26 3.508,2.201c0.997,0.942 1.764,2.06 2.303,3.356c0.539,1.295 0.808,2.723 0.808,4.282c0,1.538 -0.269,2.96 -0.808,4.266c-0.539,1.306 -1.306,2.43 -2.303,3.371c-0.996,0.941 -2.166,1.675 -3.508,2.202c-1.342,0.526 -2.816,0.789 -4.423,0.789l-9.395,0Zm63.753,0l-0,-5.314l3.752,-0l-0,-10.629l-3.752,0l-0,-5.314l14.092,-0l0,5.314l-3.752,0l0,10.629l3.752,-0l0,5.314l-14.092,0Zm18.82,0l0,-21.257l9.396,-0c1.606,-0 3.08,0.263 4.423,0.79c1.342,0.526 2.511,1.26 3.508,2.201c0.996,0.942 1.764,2.06 2.303,3.356c0.538,1.295 0.808,2.723 0.808,4.282c-0,1.538 -0.27,2.96 -0.808,4.266c-0.539,1.306 -1.307,2.43 -2.303,3.371c-0.997,0.941 -2.166,1.675 -3.508,2.202c-1.343,0.526 -2.817,0.789 -4.423,0.789l-9.396,0Zm-70.928,13.105c0.444,0.167 0.846,0.38 1.207,0.638c0.557,0.4 0.991,0.885 1.302,1.456c0.311,0.571 0.467,1.223 0.467,1.957c0,0.897 -0.164,1.676 -0.491,2.336c-0.328,0.661 -0.791,1.211 -1.389,1.652c-0.598,0.44 -1.286,0.766 -2.064,0.978c-0.778,0.212 -1.618,0.318 -2.519,0.318l-8.158,0l0,-17.124l7.913,-0c1.245,-0 2.297,0.171 3.157,0.514c0.86,0.342 1.516,0.823 1.966,1.443c0.451,0.62 0.676,1.345 0.676,2.177c-0,1.028 -0.234,1.876 -0.7,2.544c-0.341,0.488 -0.796,0.858 -1.367,1.111Z" style="fill:#fff;"/></svg>