<?xml version="1.0" encoding="UTF-8" standalone="no"?>
<!DOCTYPE svg PUBLIC "-//W3C//DTD SVG 1.1//EN" "http://www.w3.org/Graphics/SVG/1.1/DTD/svg11.dtd">
<svg width="100%" height="100%" viewBox="0 0 30 32" version="1.1" xmlns="http://www.w3.org/2000/svg" xmlns:xlink="http://www.w3.org/1999/xlink" xml:space="preserve" xmlns:serif="http://www.serif.com/" style="fill-rule:evenodd;clip-rule:evenodd;stroke-linejoin:round;stroke-miterlimit:2;">
    <g transform="matrix(1,0,0,1,-3,-3.06545)">
        <g transform="matrix(0.85454,0,0,0.85454,-144.978,-100.922)">
            <g transform="matrix(0.0181214,0,0,0.0181214,403,-213)">
                <g>
                    <path d="M-11648.5,19161.8C-11670,19154.1 -11691.2,19144 -11713.2,19133.6C-11750.5,19116 -11791.6,19097.2 -11850.2,19103.3C-11922.2,19110.8 -11972.9,19145.4 -12019.2,19185.5C-12075.6,19234.3 -12126.4,19290.6 -12190.2,19331.4C-12228.1,19355.7 -12258.2,19359.9 -12278.9,19356.5L-12299.9,19350L-12318.4,19338L-12334.2,19319.3L-12346.3,19290.3C-12358.8,19241.3 -12337.8,19137 -12299.4,19033.8C-12264.1,18938.5 -12244,18867.8 -12237.9,18813.2C-12233.3,18771.2 -12236.9,18741.3 -12251.5,18718C-12273.9,18682.3 -12316.2,18661.6 -12371.5,18633.2L-12372.7,18632.5C-12372.7,18632.5 -12415.9,18607.5 -12481.8,18573.4L-12683,18469.2L-11560.5,18469.2C-11411.4,18469.2 -11285.5,18490.4 -11182.5,18531.6C-11074.3,18574.9 -10992.4,18636.3 -10935.7,18714.6C-10878,18794.3 -10848.7,18887.6 -10848.7,18994.6C-10848.7,19124.2 -10879.2,19231 -10937.9,19315.4C-10961.5,19349.4 -10989.3,19379 -11021.3,19404.3C-11003.2,19414.8 -10985.7,19426.1 -10969,19438.1C-10898.9,19488.6 -10844.4,19550 -10805.3,19622.1C-10765.9,19694.8 -10745.7,19777.6 -10745.7,19871C-10745.7,19982.4 -10766.6,20079.1 -10807.1,20161.1C-10848.2,20244.3 -10906.1,20313.6 -10981,20368.9C-11054,20422.9 -11137.9,20463 -11232.9,20489C-11325.5,20514.4 -11425.5,20527.2 -11532.7,20527.2L-12397.6,20527.2L-12251.2,20426.5C-11978,20238.7 -11898.6,20008.2 -11866.4,19792.1C-11843.6,19638.6 -11843.3,19491.8 -11819.7,19369.4C-11802.3,19279.3 -11736.6,19213.4 -11661.3,19169.1C-11657.1,19166.6 -11652.8,19164.1 -11648.5,19161.8ZM-11532.7,20472C-11430.7,20472 -11335.6,20459.9 -11247.5,20435.8C-11159.4,20411.7 -11081.5,20374.6 -11013.8,20324.5C-10946.1,20274.5 -10893.7,20211.9 -10856.6,20136.7C-10819.5,20061.6 -10800.9,19973 -10800.9,19871C-10800.9,19787.5 -10818.6,19713.4 -10853.8,19648.4C-10889,19583.5 -10938.2,19528.3 -11001.3,19482.9C-11042.1,19453.4 -11087.7,19429.2 -11137.9,19410.3C-11073.3,19381.5 -11021.7,19339.4 -10983.2,19283.9C-10930.3,19207.9 -10903.9,19111.4 -10903.9,18994.6C-10903.9,18900 -10929.4,18817.4 -10980.4,18747C-11031.4,18676.5 -11105.6,18621.8 -11203,18582.8C-11300.4,18543.9 -11419.5,18524.4 -11560.5,18524.4L-12456.4,18524.4C-12389.2,18559.2 -12345.1,18584.7 -12345.1,18584.7C-12182.8,18668.1 -12123,18716.6 -12247.7,19053C-12303.6,19203.6 -12328.8,19354.6 -12219.9,19284.9C-12096.9,19206.2 -12025.3,19066 -11855.9,19048.4C-11737.7,19036.1 -11677.3,19103.6 -11600.9,19117.9C-11528.9,19131.4 -11433.9,19143.4 -11433.9,19143.4C-11433.9,19143.4 -11729.7,19194.6 -11765.5,19379.9C-11824.1,19684 -11737.6,20140.4 -12219.9,20472L-11532.7,20472Z" style="fill:white;"/>
                </g>
            </g>
        </g>
    </g>
</svg>
