<?xml version="1.0" encoding="UTF-8" standalone="no"?>
<!DOCTYPE svg PUBLIC "-//W3C//DTD SVG 1.1//EN" "http://www.w3.org/Graphics/SVG/1.1/DTD/svg11.dtd">
<svg width="100%" height="100%" viewBox="0 0 56 56" version="1.1" xmlns="http://www.w3.org/2000/svg" xmlns:xlink="http://www.w3.org/1999/xlink" xml:space="preserve" xmlns:serif="http://www.serif.com/" style="fill-rule:evenodd;clip-rule:evenodd;stroke-linejoin:round;stroke-miterlimit:2;">
    <g transform="matrix(0.0181214,0,0,0.0181214,238.728,-325.335)">
        <path d="M-11532.7,20472L-12219.9,20472C-11737.6,20140.4 -11824.1,19684 -11765.5,19379.9C-11729.7,19194.6 -11433.9,19143.4 -11433.9,19143.4C-11433.9,19143.4 -11528.9,19131.4 -11600.9,19117.9C-11677.3,19103.6 -11737.7,19036.1 -11855.9,19048.4C-12025.3,19066 -12096.9,19206.2 -12219.9,19284.9C-12328.8,19354.6 -12303.6,19203.6 -12247.7,19053C-12123,18716.6 -12182.8,18668.1 -12345.1,18584.7C-12345.1,18584.7 -12389.2,18559.2 -12456.4,18524.4L-11560.5,18524.4C-11419.5,18524.4 -11300.4,18543.9 -11203,18582.8C-11105.6,18621.8 -11031.4,18676.5 -10980.4,18747C-10929.4,18817.4 -10903.9,18900 -10903.9,18994.6C-10903.9,19111.4 -10930.3,19207.9 -10983.2,19283.9C-11021.7,19339.4 -11073.3,19381.5 -11137.9,19410.3C-11087.7,19429.2 -11042.1,19453.4 -11001.3,19482.9C-10938.2,19528.3 -10889,19583.5 -10853.8,19648.4C-10818.6,19713.4 -10800.9,19787.5 -10800.9,19871C-10800.9,19973 -10819.5,20061.6 -10856.6,20136.7C-10893.7,20211.9 -10946.1,20274.5 -11013.8,20324.5C-11081.5,20374.6 -11159.4,20411.7 -11247.5,20435.8C-11335.6,20459.9 -11430.7,20472 -11532.7,20472Z" style="fill:white;"/>
    </g>
</svg>
