<?xml version="1.0" encoding="UTF-8" standalone="no"?>
<!DOCTYPE svg PUBLIC "-//W3C//DTD SVG 1.1//EN" "http://www.w3.org/Graphics/SVG/1.1/DTD/svg11.dtd">
<svg width="100%" height="100%" viewBox="0 0 30 37" version="1.1" xmlns="http://www.w3.org/2000/svg" xmlns:xlink="http://www.w3.org/1999/xlink" xml:space="preserve" xmlns:serif="http://www.serif.com/" style="fill-rule:evenodd;clip-rule:evenodd;stroke-linejoin:round;stroke-miterlimit:2;">
    <g transform="matrix(1,0,0,1,-0.0899084,-0.200697)">
        <g transform="matrix(1,0,0,1,232686,-407349)">
            <g>
                <g transform="matrix(0.00797529,0,0,0.00797529,-231033,406093)">
                    <path d="M-207203,159637L-207203,157549L-205529,157549L-205529,157968C-205879,158005 -206201,158138 -206467,158340C-206237,158621 -205906,158815 -205529,158866L-205529,159282C-206024,159230 -206462,158985 -206767,158625C-207004,158904 -207161,159253 -207203,159637ZM-207203,159637L-205529,159637L-205529,160050L-207203,160050L-207203,159637ZM-207203,160050C-207161,160433 -207004,160783 -206767,161062C-206462,160702 -206024,160457 -205529,160405L-205529,160821C-205906,160872 -206237,161066 -206467,161347C-206201,161549 -205879,161682 -205529,161719L-205529,162138L-207203,162138L-207203,160050ZM-207078,158851C-207015,158742 -206943,158639 -206863,158544L-206767,158431L-206671,158544C-206415,158846 -206059,159061 -205654,159137L-205654,158972C-206018,158896 -206337,158697 -206564,158419L-206646,158319L-206543,158240C-206288,158046 -205984,157912 -205654,157858L-205654,157674L-207078,157674L-207078,158851ZM-207078,159762L-207078,159925L-205654,159925L-205654,159762L-207078,159762ZM-205654,162013L-205654,161829C-205984,161775 -206288,161641 -206543,161447L-206646,161368L-206564,161268C-206337,160990 -206018,160791 -205654,160715L-205654,160550C-206059,160626 -206415,160841 -206671,161143L-206767,161256L-206863,161143C-206943,161048 -207015,160945 -207078,160836L-207078,162013L-205654,162013Z" style="fill:rgb(66,38,128);"/>
                </g>
                <g transform="matrix(0.00431437,0,0,0.00431437,-231664,405853)">
                    <path d="M-232950,352989C-232254,353085 -231642,353443 -231216,353961C-231709,354335 -232303,354581 -232950,354650L-232950,352989ZM-232718,353270L-232718,354382C-232300,354303 -231910,354144 -231564,353922C-231879,353610 -232275,353380 -232718,353270ZM-232950,351565L-229856,351565C-229933,352274 -230223,352919 -230661,353435C-231225,352769 -232035,352317 -232950,352220L-232950,351565ZM-232718,351797L-232718,352017C-231925,352147 -231215,352528 -230675,353077C-230406,352702 -230214,352267 -230125,351797L-232718,351797ZM-232950,347716C-232303,347784 -231709,348030 -231216,348404C-231642,348922 -232254,349281 -232950,349376L-232950,347716ZM-232718,347984L-232718,349096C-232275,348985 -231879,348756 -231564,348443C-231910,348221 -232300,348062 -232718,347984ZM-232950,350145C-232035,350048 -231225,349596 -230661,348930C-230223,349447 -229933,350092 -229856,350802L-232950,350802L-232950,350145ZM-232718,350348L-232718,350570L-230125,350570C-230214,350099 -230406,349664 -230675,349289C-231215,349837 -231925,350218 -232718,350348Z" style="fill:rgb(245,73,82);"/>
                </g>
            </g>
        </g>
    </g>
</svg>
