<?xml version="1.0" encoding="UTF-8" standalone="no"?>
<!DOCTYPE svg PUBLIC "-//W3C//DTD SVG 1.1//EN" "http://www.w3.org/Graphics/SVG/1.1/DTD/svg11.dtd">
<svg width="100%" height="100%" viewBox="0 0 31 37" version="1.1" xmlns="http://www.w3.org/2000/svg" xmlns:xlink="http://www.w3.org/1999/xlink" xml:space="preserve" xmlns:serif="http://www.serif.com/" style="fill-rule:evenodd;clip-rule:evenodd;stroke-linejoin:round;stroke-miterlimit:2;">
    <g transform="matrix(1,0,0,1,-95.0757,-256.578)">
        <g transform="matrix(1,0,0,1,232596,-407273)">
            <g id="Layer_1-2" transform="matrix(0.559598,0,0,0.559598,-232501,407530)">
                <g>
                    <path d="M26.8,37.91L7.85,56.86C-2.62,46.39 -2.62,29.42 7.85,18.96L26.81,0C30.26,3.45 32.57,7.62 33.75,12.01C34.37,14.28 34.66,16.61 34.66,18.95C34.66,25.81 32.04,32.67 26.8,37.91ZM25.536,36.646C30.427,31.756 32.873,25.353 32.873,18.95C32.873,16.769 32.604,14.597 32.025,12.477L32.024,12.474C31.068,8.917 29.317,5.514 26.765,2.572L9.113,20.224C-0.234,29.562 -0.64,44.459 7.894,54.288L25.536,36.646Z" style="fill:url(#_Linear1);fill-rule:nonzero;"/>
                    <path d="M45.76,56.87C36.28,66.35 21.49,67.24 10.99,59.55L48.44,22.09C56.13,32.58 55.24,47.38 45.75,56.87L45.76,56.87ZM44.489,55.613L44.486,55.606C52.829,47.263 54.052,34.523 48.167,24.89L13.79,59.276C23.428,65.16 36.155,63.941 44.489,55.613Z" style="fill:url(#_Linear2);fill-rule:nonzero;"/>
                </g>
            </g>
        </g>
    </g>
    <defs>
        <linearGradient id="_Linear1" x1="0" y1="0" x2="1" y2="0" gradientUnits="userSpaceOnUse" gradientTransform="matrix(3.48167e-15,-56.86,56.86,3.48167e-15,17.33,56.86)"><stop offset="0" style="stop-color:rgb(242,111,99);stop-opacity:1"/><stop offset="1" style="stop-color:rgb(252,182,77);stop-opacity:1"/></linearGradient>
        <linearGradient id="_Linear2" x1="0" y1="0" x2="1" y2="0" gradientUnits="userSpaceOnUse" gradientTransform="matrix(2.60972e-15,-42.62,42.62,2.60972e-15,32.3,64.71)"><stop offset="0" style="stop-color:rgb(239,69,129);stop-opacity:1"/><stop offset="1" style="stop-color:rgb(242,111,99);stop-opacity:1"/></linearGradient>
    </defs>
</svg>
